<?xml version="1.0" encoding="utf-8"?>
<!-- Generator: Adobe Illustrator 19.0.0, SVG Export Plug-In . SVG Version: 6.00 Build 0)  -->
<svg version="1.1" id="Layer_1" xmlns="http://www.w3.org/2000/svg" xmlns:xlink="http://www.w3.org/1999/xlink" x="0px" y="0px"
	 viewBox="0 0 800 600" style="enable-background:new 0 0 800 600;" xml:space="preserve">
<style type="text/css">
	.st0{fill:#FFFFFF;}
	.st1{fill:#D9E021;}
</style>
<g id="XMLID_49_">
	<path id="XMLID_67_" class="st0" d="M189.5,223v-25.2c0-9.3-4-11.3-7.4-11.3c-3.3,0-5.9,1.9-7,5.3c-0.5,1.2-0.6,2.9-0.6,4.1V223
		h-14.9v-25.7c0-9.4-4.6-10.8-7.4-10.8c-3.1,0-5.6,1.8-7,5c0,0,0,0.1,0,0.1c-0.4,1.2-0.6,2.6-0.6,4.2V223h-14.9v-31.5
		c0-6.1-0.2-11.4-0.3-15.6h12.5l0.6,5c0.1,0.8,0.7,1.3,1.5,1.3h0.4c0.5,0,0.9-0.2,1.2-0.6c3.2-4.5,7.9-6.8,13.7-6.8
		c5.8,0,10.3,2.6,12.2,7.1c0.2,0.6,0.8,0.9,1.4,0.9h0.2c0.5,0,0.9-0.2,1.2-0.6c1.7-2.3,3.8-4.2,6.4-5.6c2.4-1.2,5.1-1.9,8.2-1.9
		c10,0,15.5,7.2,15.5,20.3v28H189.5z"/>
	<path id="XMLID_61_" class="st0" d="M188.9,176.2c6.4,0,14,3.3,14,18.8v26.5H191v-23.7c0-11.1-5.6-12.8-8.9-12.8
		c-3.9,0-7.1,2.3-8.4,6.3c-0.6,1.5-0.7,3.4-0.7,4.7v25.6h-11.9v-24.2c0-11.1-6.2-12.3-8.9-12.3c-3.7,0-6.7,2.1-8.4,5.9
		c0,0.1-0.1,0.2-0.1,0.3c-0.5,1.4-0.7,2.9-0.7,4.7v25.7h-11.9v-30c0-5.4-0.1-10.2-0.3-14.1h9.6l0.4,3.7c0.2,1.5,1.5,2.7,3,2.7h0.4
		c1,0,1.9-0.5,2.4-1.2c3-4.1,7.2-6.2,12.5-6.2c5.2,0,9.1,2.3,10.8,6.2c0.5,1.1,1.6,1.8,2.8,1.8h0.2c1,0,1.9-0.5,2.4-1.2
		c1.6-2.2,3.5-3.8,5.9-5.1C183.5,176.7,186.1,176.2,188.9,176.2 M188.9,173.2c-3.4,0-6.3,0.7-8.9,2c-2.7,1.4-5,3.4-6.9,6h-0.2
		c-2.1-5.1-7.1-8.1-13.6-8.1c-8.7,0-13.1,4.9-14.9,7.4H144l-0.7-6.3h-15.4c0.2,4.7,0.4,10.4,0.4,17.1v33h17.9v-28.7
		c0-1.2,0.1-2.5,0.5-3.8c0.7-1.6,2.3-4.1,5.6-4.1c4.2,0,5.9,3.7,5.9,9.3v27.2H176v-28.6c0-1.1,0.1-2.7,0.5-3.7
		c0.8-2.4,2.7-4.3,5.6-4.3c4.1,0,5.9,3.6,5.9,9.8v26.7h17.9V195C205.9,181,199.7,173.2,188.9,173.2L188.9,173.2z"/>
</g>
<g id="XMLID_45_">
	<path id="XMLID_59_" class="st0" d="M213.6,232.7c1.4-0.3,3.2-0.9,5.1-1.7c2.6-1,5.2-3.3,6.5-5.1c0.8-1.1,1.2-2.2,1.2-3.1
		c0-0.7-0.1-1.7-0.8-3.3l-17.5-43.7h17l5.7,21.4c0.7,2.7,1.6,6.4,2.2,8.9c0.2,0.7,0.8,1.1,1.5,1.1h0.3c0.7,0,1.3-0.5,1.5-1.2
		c0.5-2.3,1.1-5.3,1.6-7.7l0.3-1.3l4.3-21.4h16.3l-10,30c-7.6,21.1-12.5,28.4-17.4,32.8c-4.2,3.7-9.1,6-14.6,6.8L213.6,232.7z"/>
	<path id="XMLID_50_" class="st0" d="M256.7,177.3l-9.4,27.9c-7.5,20.8-12.2,27.9-17,32.2c-3.6,3.2-7.8,5.3-12.5,6.2l-2.4-9.9
		c1.2-0.3,2.5-0.8,3.9-1.4c2.9-1.2,5.7-3.6,7.1-5.6c0,0,0,0,0-0.1c1-1.4,1.5-2.7,1.5-4c0-1.3-0.3-2.5-1-3.9l-16.7-41.6H224l5.4,20.3
		c0.7,2.7,1.6,6.4,2.2,8.9c0.3,1.3,1.5,2.3,2.9,2.3h0.3c1.4,0,2.6-1,2.9-2.3c0.5-2.3,1.1-5.3,1.6-7.7l0.2-1.2l4.1-20.2H256.7
		 M260.9,174.3h-19.6l-4.6,22.6c-0.5,2.6-1.2,6.2-1.8,8.9h-0.3c-0.6-2.6-1.5-6.2-2.2-9l-6-22.5h-20.4l18.4,45.8
		c0.6,1.2,0.7,2,0.7,2.7c0,0.7-0.4,1.5-0.9,2.2c-1.2,1.6-3.6,3.7-5.9,4.6c-2.2,1-4.5,1.6-6.3,1.9l3.8,15.5
		c4.7-0.5,10.9-2.2,16.7-7.3c5.4-4.8,10.3-12.4,17.9-33.5L260.9,174.3L260.9,174.3z"/>
</g>
<g id="XMLID_25_">
	<path id="XMLID_110_" class="st1" d="M279.6,244.2v-52.7c0-6.6-0.2-12.3-0.4-16.6h14.8l0.8,6.4h0.9l0.1-0.2
		c3.6-4.8,9.1-7.3,15.9-7.3c5.1,0,10.2,2.4,13.8,6.5c4.1,4.6,6.3,11.1,6.3,18.6c0,18.1-11.6,26.3-22.3,26.3c-6.1,0-10-2.5-11.5-4.6
		l-0.1-0.2h-1v23.9H279.6z M305.1,187c-3.9,0-7.3,2.9-7.9,6.8c-0.2,0.7-0.2,1.6-0.2,2.4v6.2c0,1.2,0.1,2.2,0.3,3.2
		c0.8,3.8,4,6.4,7.6,6.4c5.7,0,9.4-4.9,9.4-12.4C314.3,191.8,310.9,187,305.1,187z"/>
	<path id="XMLID_105_" class="st1" d="M311.9,174.2c5,0,9.9,2.3,13.5,6.3c4,4.6,6.2,10.9,6.2,18.3c0,17.7-11.3,25.8-21.8,25.8
		c-5.5,0-9.6-2.2-11.1-4.4l-0.3-0.4h-0.5h-0.2h-1v1v22.9h-16.4v-52.2c0-6.4-0.2-11.9-0.4-16.1h13.9l0.7,5.6l0.1,0.9h0.9h0.2h0.5
		l0.3-0.4C299.9,176.6,305.1,174.2,311.9,174.2 M296.7,193.7c-0.2,0.8-0.2,1.7-0.2,2.6v6.2c0,1.2,0.1,2.3,0.3,3.3
		c0.9,4,4.2,6.8,8.1,6.8c6,0,9.9-5.1,9.9-12.9c0-8.2-3.6-13.1-9.7-13.1C301,186.5,297.4,189.6,296.7,193.7 M311.9,173.2
		c-6.9,0-12.5,2.6-16.3,7.5h-0.2l-0.8-6.4h-15.8c0.2,4.7,0.4,10.4,0.4,17.1v53.2h18.4v-23.9h0.2c1.8,2.6,6.2,4.8,11.9,4.8
		c10.9,0,22.8-8.5,22.8-26.8C332.5,182.4,322.3,173.2,311.9,173.2L311.9,173.2z M304.9,211.6c-3.7,0-6.4-2.8-7.1-6
		c-0.2-0.9-0.3-1.9-0.3-3.1v-6.2c0-0.8,0-1.6,0.2-2.3c0.6-3.6,3.8-6.4,7.4-6.4c5.8,0,8.7,5,8.7,12.1
		C313.8,206.9,310.4,211.6,304.9,211.6L304.9,211.6z"/>
</g>
<g id="XMLID_27_">
	<path id="XMLID_94_" class="st1" d="M337.9,224v-32.8c0-7.9-0.1-12.5-0.4-16.4h14.7l0.7,9.1h1.2l0.1-0.3c2.5-7.3,8.5-9.9,12.9-9.9
		c1.4,0,2.1,0,3.2,0.2v16.2c-1.3-0.3-2.7-0.4-4.2-0.4c-5.7,0-9.5,2.4-10.6,6.7c-0.1,0.8-0.2,2-0.2,3.3V224H337.9z"/>
	<path id="XMLID_91_" class="st1" d="M367.1,174.2c1.2,0,1.9,0,2.7,0.1v15.2c-1.2-0.2-2.4-0.3-3.7-0.3c-5.9,0-9.9,2.6-11.1,7.1
		l0,0.1l0,0.1c-0.1,0.8-0.2,2-0.2,3.3v23.8h-16.5v-32.3c0-7.6-0.1-12.1-0.3-15.9h13.7l0.6,8.2l0.1,0.9h0.9h0.4h0.7l0.2-0.7
		C357.2,176.7,362.9,174.2,367.1,174.2 M367.1,173.2c-4.4,0-10.7,2.6-13.4,10.2h-0.4l-0.7-9.1h-15.7c0.3,4.2,0.4,9,0.4,16.9v33.3
		h18.5v-24.8c0-1.2,0.1-2.3,0.2-3.2c1-4.1,4.7-6.3,10.1-6.3c1.9,0,3.4,0.2,4.7,0.5v-17.2C369.5,173.2,368.8,173.2,367.1,173.2
		L367.1,173.2z"/>
</g>
<g id="XMLID_12_">
	<path id="XMLID_89_" class="st1" d="M397.9,225.1c-15.6,0-26.1-10.2-26.1-25.3c0-15.9,10.7-26.1,27.1-26.1
		c15.3,0,25.6,10.1,25.6,25.2c0,8.3-2.8,15.2-8.1,19.8C411.8,222.8,405.2,225.1,397.9,225.1z"/>
	<path id="XMLID_86_" class="st1" d="M399,174.2c15,0,25.1,9.9,25.1,24.7c0,8.2-2.7,14.9-7.9,19.5c-4.6,4-11.1,6.3-18.2,6.3
		c-15.3,0-25.6-10-25.6-24.8c0-7.6,2.5-14.1,7.1-18.6C384.1,176.6,390.9,174.2,399,174.2 M399,173.2c-17.1,0-27.6,10.6-27.6,26.6
		c0,16.3,11.6,25.8,26.6,25.8c14.1,0,27.1-8.5,27.1-26.7C425.1,183.8,414.7,173.2,399,173.2L399,173.2z"/>
</g>
<g id="XMLID_7_">
	<path id="XMLID_84_" class="st1" d="M421.1,232.7c4.1-0.4,6.9-1.4,8.7-3.2c2.3-2.2,3.1-6.2,3.1-15.7v-39.1h17.5v43
		c0,10.7-2.3,17.7-7.4,22.1c-4.5,3.9-11.7,6.1-20.2,6.2L421.1,232.7z"/>
	<path id="XMLID_73_" class="st1" d="M449.9,175.3v42.5c0,10.5-2.3,17.4-7.2,21.7c-4.3,3.8-11.2,5.9-19.5,6.1l-1.5-12.4
		c3.9-0.4,6.7-1.5,8.4-3.2c2.4-2.3,3.3-6.4,3.3-16v-38.6H449.9 M450.9,174.3h-18.5v39.6c0,9.2-0.7,13.2-3,15.3
		c-1.8,1.8-4.9,2.8-8.9,3.1l1.7,14.3c8.6,0,16.1-2,21-6.3c4.8-4.2,7.5-11,7.5-22.4V174.3L450.9,174.3z"/>
</g>
<g id="XMLID_9_">
	<path id="XMLID_71_" class="st1" d="M441.5,168.7c-5.2,0-8.8-3.4-8.8-8.2c0-4.9,3.6-8.3,8.9-8.3c5.3,0,8.8,3.3,8.9,8.3
		C450.5,165.3,446.8,168.7,441.5,168.7z"/>
	<path id="XMLID_66_" class="st1" d="M441.6,152.7c5,0,8.3,3.1,8.4,7.8c0,4.5-3.5,7.7-8.5,7.7c-4.9,0-8.3-3.2-8.3-7.7
		C433.2,155.9,436.6,152.7,441.6,152.7 M441.6,151.7c-5.7,0-9.4,3.7-9.4,8.8c0,4.8,3.6,8.7,9.3,8.7c5.8,0,9.5-3.9,9.5-8.7
		C450.9,155.4,447.3,151.7,441.6,151.7L441.6,151.7z"/>
</g>
<g id="XMLID_16_">
	<path id="XMLID_81_" class="st1" d="M483.1,225.1c-17,0-27.1-9.4-27.1-25.2c0-10.5,6.8-26.2,25.5-26.2c14.2,0,22.7,9.4,22.7,25.2
		c0,2.8-0.4,5.3-0.6,6.4h-31.1l0.1,0.6c0.7,4.6,7.2,6.6,13.3,6.6c5,0,9.2-0.6,13.3-1.8l2.2,11.4C496.1,224.1,490,225.1,483.1,225.1z
		 M480.6,184.7c-5.9,0-7.9,5.4-8.3,8.6l-0.1,0.5h15.9v-0.5C488.2,190.1,486.6,184.7,480.6,184.7z"/>
	<path id="XMLID_76_" class="st1" d="M481.5,174.2c7.3,0,13,2.5,16.9,7.3c3.5,4.3,5.3,10.3,5.3,17.4c0,2.4-0.3,4.6-0.5,5.9H473h-1.2
		l0.2,1.2c0.7,4.2,6.2,7.1,13.8,7.1c4.8,0,9-0.5,12.9-1.7l2,10.4c-5.1,1.9-11,2.8-17.6,2.8c-8.3,0-15.2-2.3-19.8-6.6
		c-4.5-4.3-6.9-10.5-6.9-18.1C456.5,189.5,463.1,174.2,481.5,174.2 M471.7,194.4h1.1h14.9h1v-1c0-3.4-1.7-9.2-8.1-9.2
		c-2.9,0-8.1,1.9-8.7,9.1L471.7,194.4 M481.5,173.2c-18.5,0-26,15.1-26,26.7c0,15.9,10,25.7,27.6,25.7c6.2,0,12.8-0.8,18.8-3.2
		l-2.3-12.3c-4.5,1.4-9,1.9-13.7,1.9c-6.5,0-12.2-2.2-12.9-6.2h30.9c0.3-1.2,0.7-4,0.7-6.9C504.6,185.1,497.7,173.2,481.5,173.2
		L481.5,173.2z M472.8,193.4c0.3-3.2,2.3-8.2,7.8-8.2c5.8,0,7.1,5.3,7.1,8.2H472.8L472.8,193.4z"/>
</g>
<g id="XMLID_3_">
	<path id="XMLID_63_" class="st1" d="M533.8,225c-16.5,0-26.7-9.7-26.7-25.2c0-15.9,11.4-26.1,29-26.1c3.8,0,7.9,0.6,11,1.6
		l-2.4,12.4c-2-0.7-4.5-1-7.6-1c-3.5,0-6.6,1.2-8.8,3.4c-2.2,2.3-3.4,5.4-3.3,9c0,7.7,5,12.6,12.6,12.6c3,0,5.4-0.4,7.7-1.1L547,223
		C544.2,224.3,539.4,225,533.8,225z"/>
	<path id="XMLID_55_" class="st1" d="M536.1,174.2c3.6,0,7.4,0.5,10.4,1.4l-2.2,11.4c-1.9-0.6-4.3-0.9-7.2-0.9
		c-3.6,0-6.9,1.3-9.2,3.6c-2.3,2.4-3.5,5.6-3.5,9.4c0,8,5.2,13.1,13.1,13.1c2.8,0,5.1-0.3,7.2-1l1.7,11.5c-2.8,1.1-7.3,1.8-12.7,1.8
		c-16.2,0-26.2-9.5-26.2-24.7c0-7.1,2.5-13.5,7.1-18C519.7,176.8,527.1,174.2,536.1,174.2 M536.1,173.2c-19.6,0-29.5,12.2-29.5,26.6
		c0,15.9,10.5,25.7,27.2,25.7c5.6,0,10.8-0.7,13.8-2.1l-1.9-13.5c-2.3,0.9-4.9,1.3-8.1,1.3c-6.5,0-12.1-3.9-12.1-12.1
		c-0.1-7.2,4.8-11.9,11.6-11.9c3.8,0,6.2,0.5,8,1.2l2.5-13.5C544,173.7,539.6,173.2,536.1,173.2L536.1,173.2z"/>
</g>
<g id="XMLID_2_">
	<path id="XMLID_53_" class="st1" d="M572.6,225.1c-4.9,0-9.4-1.7-12.2-4.4c-3.1-3.1-4.5-8-4.5-15.3v-18.1h-6.2v-12.5h6.2v-9.5
		l17-4.6v14.1h10.4v12.5h-10.4v14.9c0,5.5,1.1,9,6.3,9c1.9,0,2.7,0,3.9-0.3v13C580.7,224.6,576.7,225.1,572.6,225.1z"/>
	<path id="XMLID_48_" class="st1" d="M572.3,161.3v13v1h1h9.4v11.5h-9.4h-1v1v14.4c0,5.7,1.2,9.5,6.8,9.5c1.6,0,2.4,0,3.4-0.2v12
		c-2.3,0.7-6.1,1.1-9.9,1.1c-4.7,0-9.1-1.6-11.8-4.3c-3-3-4.4-7.8-4.4-14.9v-17.6v-1h-1h-5.2v-11.5h5.2h1v-1v-8.6L572.3,161.3
		 M573.3,160l-18,4.9v9.4h-6.2v13.5h6.2v17.6c0,7.7,1.6,12.5,4.7,15.6c2.7,2.7,7.1,4.6,12.5,4.6c4.7,0,8.8-0.6,10.9-1.4v-14
		c-1.5,0.4-2.2,0.4-4.4,0.4c-4.5,0-5.8-2.4-5.8-8.5v-14.4h10.4v-13.5h-10.4V160L573.3,160z"/>
</g>
<g id="XMLID_1_">
	<path id="XMLID_46_" class="st1" d="M602.9,225.1c-6.2,0-12.4-1.2-16.7-3.3l2.9-11.9c3.2,1.7,9.4,3.5,13.5,3.5c3,0,6-0.4,6-3.3
		c0-2.3-1.7-3.2-6.9-4.8c-12.1-3.9-14.5-10.3-14.4-14.9c0-10,8.6-16.7,21.3-16.7c5.8,0,11.1,1.3,14.3,2.7l-2.7,11.4
		c-2.4-1-6.8-2.5-10.8-2.5c-3.6,0-5.5,1.1-5.5,3.4c0,1.9,1.7,3,7.9,5.1c9.2,3,13.3,7.7,13.4,15.1C625.3,219,616.9,225.1,602.9,225.1
		z"/>
	<path id="XMLID_42_" class="st1" d="M608.7,174.2c5.5,0,10.6,1.2,13.7,2.5l-2.5,10.4c-2.5-1-6.7-2.4-10.4-2.4c-4,0-6,1.3-6,3.9
		c0,2.4,2.4,3.6,8.2,5.5c8.9,3,13,7.5,13.1,14.7c0,9.9-8.2,15.8-22,15.8c-5.9,0-11.9-1.2-16.1-3.1l2.7-10.9
		c3.4,1.7,9.1,3.3,13.2,3.3c1.9,0,6.5,0,6.5-3.8c0-2.8-2.2-3.7-7.2-5.2c-11.8-3.8-14.2-9.9-14.1-14.5
		C587.8,180.7,596.2,174.2,608.7,174.2 M608.7,173.2c-13.3,0-21.8,7.2-21.8,17.2c-0.1,5.8,3.7,11.8,14.8,15.4
		c5.4,1.6,6.5,2.4,6.5,4.3c0,1.9-1.5,2.8-5.5,2.8c-4.5,0-11-2-13.9-3.8l-3.2,13c4,2,10.2,3.6,17.2,3.6c15.5,0,23-7.2,23-16.8
		c-0.1-7.2-3.9-12.3-13.8-15.6c-5.9-1.9-7.5-3-7.5-4.6c0-2,1.8-2.9,5-2.9c4.1,0,8.8,1.6,11.1,2.8l3-12.4
		C620.3,174.6,614.8,173.2,608.7,173.2L608.7,173.2z"/>
</g>
</svg>
